<svg aria-hidden="true" viewBox="0 0 18 18" fill="none" xmlns="http://www.w3.org/2000/svg"><path d="M8.25 9a.75.75 0 010 1.5H6A.75.75 0 116 9h2.25zm4.5-2.25A.75.75 0 0012 6H6a.75.75 0 000 1.5h6a.75.75 0 00.75-.75zM6 4.5h6A.75.75 0 1012 3H6a.75.75 0 000 1.5zm9 10.083v2.875a.54.54 0 01-.923.382l-.577-.576-.577.576a.542.542 0 01-.923-.382v-2.875A2.99 2.99 0 0113.5 9c.254.003.506.039.75.107V3.75A2.25 2.25 0 0012 1.5H6a2.25 2.25 0 00-2.25 2.25v9A2.25 2.25 0 006 15h3.75a.75.75 0 110 1.5H6a3.755 3.755 0 01-3.75-3.75v-9A3.755 3.755 0 016 0h6a3.754 3.754 0 013.75 3.75v6.287a2.962 2.962 0 01-.75 4.546zM15 12a1.5 1.5 0 10-3 0 1.5 1.5 0 003 0z" fill="currentColor"/></svg>