<svg aria-hidden="true" viewBox="0 0 18 18" fill="none" xmlns="http://www.w3.org/2000/svg"><path d="M17.906 5.657a2.91 2.91 0 00-1.363-1.735l-5.53-2.634a3.92 3.92 0 00-3.963-.034L1.457 3.922c-.02.011-.043.022-.063.034a2.768 2.768 0 00.063 4.841L3 9.534v3.675a3.756 3.756 0 002.64 3.583c1.091.316 2.223.47 3.36.459a11.67 11.67 0 003.36-.455A3.755 3.755 0 0015 13.21v-3.68l1.5-.717V15a.75.75 0 101.5 0V6a.727.727 0 00-.094-.343zM13.5 13.211a2.25 2.25 0 01-1.575 2.147c-.95.272-1.936.404-2.925.392-.989.012-1.974-.12-2.925-.392A2.25 2.25 0 014.5 13.211v-2.964l2.488 1.185a3.954 3.954 0 002.028.554 3.75 3.75 0 001.933-.52l2.551-1.219v2.964zm2.4-5.767l-5.657 2.7a2.472 2.472 0 01-2.542-.034L2.167 7.478a1.269 1.269 0 01-.028-2.219L7.76 2.574a2.475 2.475 0 012.543.034l5.53 2.634A1.296 1.296 0 0116.5 6.36a1.276 1.276 0 01-.6 1.084z" fill="currentColor"/></svg>