<svg aria-hidden="true" viewBox="0 0 18 18" fill="none" xmlns="http://www.w3.org/2000/svg"><path d="M9 0a9 9 0 109 9 9.01 9.01 0 00-9-9zm0 16.5A7.5 7.5 0 1116.5 9 7.509 7.509 0 019 16.5z" fill="#A3ABB5"/><path d="M9.538 3.797A3 3 0 006 6.75a.75.75 0 001.5 0 1.5 1.5 0 012.56-1.06c.214.213.36.485.418.781a1.5 1.5 0 01-.75 1.594 2.966 2.966 0 00-1.478 2.628v.557a.75.75 0 101.5 0v-.557a1.487 1.487 0 01.697-1.314 3 3 0 00-.91-5.582zM9.75 13.5a.75.75 0 10-1.5 0 .75.75 0 001.5 0z" fill="#A3ABB5"/></svg>