<svg aria-hidden="true" viewBox="0 0 18 18" fill="none" xmlns="http://www.w3.org/2000/svg"><path d="M14.25 15H3.75A3.755 3.755 0 010 11.25v-4.5A3.755 3.755 0 013.75 3h10.5A3.754 3.754 0 0118 6.75v4.5A3.754 3.754 0 0114.25 15zM3.75 4.5A2.25 2.25 0 001.5 6.75v4.5a2.25 2.25 0 002.25 2.25h10.5a2.25 2.25 0 002.25-2.25v-4.5a2.25 2.25 0 00-2.25-2.25H3.75zM9 12a3 3 0 110-6 3 3 0 010 6zm0-4.5a1.5 1.5 0 100 3 1.5 1.5 0 000-3zM3.75 6a.75.75 0 100 1.5.75.75 0 000-1.5zm9.75.75a.75.75 0 101.5 0 .75.75 0 00-1.5 0zM3.75 10.5a.75.75 0 100 1.5.75.75 0 000-1.5zm9.75.75a.75.75 0 101.5 0 .75.75 0 00-1.5 0z" fill="currentColor"/></svg>