<svg aria-hidden="true" viewBox="0 0 18 18" fill="none" xmlns="http://www.w3.org/2000/svg"><path d="M17.25 16.5h-15a.75.75 0 01-.75-.75v-15a.75.75 0 00-1.5 0v15A2.25 2.25 0 002.25 18h15a.75.75 0 100-1.5z" fill="currentColor"/><path d="M11.25 15a.75.75 0 00.75-.75V9a.75.75 0 10-1.5 0v5.25a.75.75 0 00.75.75zM5.25 15a.75.75 0 00.75-.75V9a.75.75 0 00-1.5 0v5.25a.75.75 0 00.75.75zM14.25 15a.75.75 0 00.75-.75v-9a.75.75 0 10-1.5 0v9a.75.75 0 00.75.75zM8.25 15a.75.75 0 00.75-.75v-9a.75.75 0 00-1.5 0v9a.75.75 0 00.75.75z" fill="currentColor"/></svg>