<svg aria-label="Ufounders Isologotype" viewBox="0 0 394 67" fill="none" xmlns="http://www.w3.org/2000/svg"><path d="M0 22.485h14.763v24.118c0 3.692 2.576 6.269 6.269 6.269 3.52 0 6.179-2.577 6.179-6.27V22.486h14.763v22.92c0 12.62-8.839 21.03-20.942 21.03C8.928 66.436 0 58.026 0 45.406v-22.92zM136.543 22.485h14.763v24.118c0 3.692 2.577 6.269 6.269 6.269 3.52 0 6.179-2.577 6.179-6.27V22.486h14.763v22.92c0 12.62-8.838 21.03-20.942 21.03-12.104 0-21.032-8.41-21.032-21.03v-22.92zM225.892 65.41h-14.763V41.12c0-3.776-2.577-6.352-6.269-6.352s-6.179 2.576-6.179 6.351v24.29h-14.763V22.492h13.475v3.52c3.175-3.003 7.212-4.546 12.103-4.546 9.955 0 16.396 6.868 16.396 17.511v26.432zM277.64 65.403h-13.481v-4.465c-2.659 3.693-6.779 5.49-12.276 5.49-12.014 0-20.598-9.354-20.598-22.401 0-13.048 8.756-22.575 20.598-22.575 4.553 0 8.156 1.288 10.987 3.947V1.02h14.77v64.383zM254.804 34.85c-4.554 0-8.412 3.348-8.412 9.1s3.693 9.1 8.412 9.1c4.553 0 8.328-3.176 8.328-9.01 0-5.842-3.775-9.19-8.328-9.19zM296.901 49.097c1.633 3.258 4.809 4.89 9.617 4.89 3.865 0 7.55-1.115 11.243-3.347l5.318 10.044c-5.063 3.864-10.815 5.752-17.077 5.752-13.992 0-24.125-9.782-24.125-22.492 0-12.62 10.127-22.492 22.919-22.492 12.359 0 20.515 9.272 20.515 20.343 0 2.576-.344 4.98-.944 7.295h-27.466v.007zm14.426-9.61c-.083-3.865-3.259-6.441-7.123-6.441-3.693 0-6.696 2.321-7.812 6.44h14.935zM355.581 35.533h-.744c-6.779 0-10.216 3.093-10.216 10.298v19.572h-14.763V22.485h13.474v4.547c2.66-3.348 6.435-5.236 10.816-5.236 1.543 0 2.921.255 4.209.69l-2.776 13.047zM364.557 49.441c3.692 3.52 7.639 5.318 11.848 5.318 2.487 0 3.776-.599 3.776-1.887 0-.944-.689-1.371-2.487-2.15l-4.809-1.977c-8.494-3.43-12.448-7.04-12.448-13.819 0-8.5 6.613-13.474 16.65-13.474 6.779 0 12.104 2.06 16.141 6.269l-6.958 9.01c-2.921-2.486-5.924-3.692-9.1-3.692-1.977 0-3.003.517-3.003 1.633 0 .943.861 1.543 2.92 2.314l4.292 1.716c8.584 3.43 12.531 6.696 12.531 13.474 0 4.381-1.633 7.895-4.981 10.471-3.348 2.487-7.55 3.775-12.792 3.775-7.64 0-14.418-3.003-18.455-8.239l6.875-8.742zM68.317 18.882c0-4.037 1.977-5.662 7.04-5.662.324 0 .903.034 1.688.082L79.82.558C78.23.186 73.656 0 71.582 0 60.25 0 53.554 6.007 53.554 17.429v5.063h-6.007v12.359h6.007v30.558h14.763V34.851h8.666V22.492h-8.666v-3.61z" fill="#101B29"/><path d="M133.9 34.23c-1.104-2.661-5.207-3.76-10.973-3.441-4.222-6.254-11.601-10.457-19.762-10.3-12.807-.247-23.637 10.237-23.382 22.537-.03 1.942.219 3.879.736 5.751-3.918 3.69-5.787 7.194-4.725 9.749 1.166 2.786 5.567 3.862 11.748 3.42.735-.054 1.572-.2 2.358-.303a23.125 23.125 0 0013.263 3.896c10.341.208 19.383-6.6 22.363-15.699-4.071 1.987-8.995 3.173-8.995 3.173 1.288-.695 2.925-1.75 4.49-2.814.235-.158.476-.331.725-.496a178.104 178.104 0 004.642-3.332v-.012c.931-.736 1.821-1.472 2.599-2.208 4.065-3.74 6.004-7.32 4.913-9.92zM84.707 57.992h-.013c-.29.013-.58.028-.862.028v-.028c-2.67.04-4.49-.476-4.967-1.62-.496-1.209.49-2.92 2.559-4.883a20.71 20.71 0 001.788 3.283c.268.103 4.23 1.53 12.042.84 0 .008-3.158 1.974-10.547 2.38zm21.11-6.423a8.457 8.457 0 01-2.562.389h-.044c-.127 0-.252 0-.368-.011h-.035c-.112 0-.223-.015-.333-.024h-.132l-.184-.02a8.449 8.449 0 01-2.391-.628l-.157-.068-.11-.051a8.937 8.937 0 013.717-17.068h.044a8.427 8.427 0 011.729.184 8.935 8.935 0 017.159 8.333 8.942 8.942 0 01-6.326 8.981l-.007-.017zm20.656-11.38c.213-.211.099-.134 0-.045a20.918 20.918 0 00-1.856-6.396c.035.048.075.088.118.138 2.227.055 4.173.572 4.62 1.606.366.912-.007 2.836-2.882 4.698zM126.725 20.492a5.746 5.746 0 100-11.492 5.746 5.746 0 000 11.492z" fill="#E93256"/></svg>