<svg aria-label="Ufounders Isologotype" viewBox="0 0 84 81" fill="none" xmlns="http://www.w3.org/2000/svg"><path d="M73.302 16.445a8.223 8.223 0 100-16.445 8.223 8.223 0 000 16.445z" fill="#E93256"/><path fill-rule="evenodd" clip-rule="evenodd" d="M83.57 36.104c-1.579-3.809-7.45-5.38-15.702-4.925-6.041-8.948-16.62-14.739-28.28-14.739-18.4-.176-33.459 14.65-33.459 32.25a31.654 31.654 0 001.053 8.23C1.576 62.2-1.098 67.215.42 70.87c1.67 3.988 7.968 5.528 16.811 4.896 1.053-.079 2.251-.287 3.375-.434 5.438 3.61 12 5.574 18.98 5.574 15.86 0 27.737-9.443 32-22.464-5.824 2.843-12.87 4.54-12.87 4.54 1.842-.995 5.222-3.216 7.462-4.737a254.003 254.003 0 006.643-4.767v-.019c1.332-1.052 2.606-2.105 3.72-3.158 5.816-5.353 8.59-10.475 7.03-14.197zM11.924 70.147c.41 0 .84-.022 1.252-.04 10.574-.582 15.093-3.395 15.093-3.416-11.179.987-16.848-1.056-17.232-1.203a29.64 29.64 0 01-2.559-4.698c-2.96 2.81-4.372 5.259-3.661 6.988.682 1.647 3.287 2.369 7.107 2.369zM32.548 59.31a12.792 12.792 0 1014.228-21.264 12.792 12.792 0 00-14.228 21.264zm37.82-23.71a30.391 30.391 0 012.574 9.026v.005c4.114-2.664 4.649-5.417 4.114-6.728-.634-1.479-3.5-2.224-6.688-2.303z" fill="#E93256"/></svg>